<svg width="21" height="21" viewBox="0 0 21 21" fill="none" xmlns="http://www.w3.org/2000/svg">
<path fill-rule="evenodd" clip-rule="evenodd" d="M19.5291 4.845C19.9925 3.34994 19.8096 1.72919 19.0247 0.375C18.8907 0.142897 18.643 -6.019e-05 18.375 0C16.6036 -0.00370777 14.9349 0.830669 13.875 2.25H11.625C10.5651 0.830669 8.89638 -0.00370777 7.125 0C6.85699 -6.019e-05 6.60932 0.142897 6.47531 0.375C5.69035 1.72919 5.50747 3.34994 5.97094 4.845C5.50756 5.6538 5.25934 6.56791 5.25 7.5V8.25C5.25326 10.8741 7.19154 13.0936 9.79125 13.4503C9.27807 14.107 8.99952 14.9166 9 15.75V16.5H6.75C5.50736 16.5 4.5 15.4926 4.5 14.25C4.5 12.1789 2.82107 10.5 0.75 10.5C0.335786 10.5 0 10.8358 0 11.25C0 11.6642 0.335786 12 0.75 12C1.99264 12 3 13.0074 3 14.25C3 16.3211 4.67893 18 6.75 18H9V19.5C9 19.9142 9.33579 20.25 9.75 20.25C10.1642 20.25 10.5 19.9142 10.5 19.5V15.75C10.5 14.5074 11.5074 13.5 12.75 13.5C13.9926 13.5 15 14.5074 15 15.75V19.5C15 19.9142 15.3358 20.25 15.75 20.25C16.1642 20.25 16.5 19.9142 16.5 19.5V15.75C16.5005 14.9166 16.2219 14.107 15.7087 13.4503C18.3085 13.0936 20.2467 10.8741 20.25 8.25V7.5C20.2407 6.56791 19.9924 5.6538 19.5291 4.845V4.845ZM18.75 8.25C18.75 10.3211 17.0711 12 15 12H10.5C8.42893 12 6.75 10.3211 6.75 8.25V7.5C6.7592 6.75002 6.98373 6.01849 7.39687 5.3925C7.55345 5.18612 7.59244 4.91356 7.5 4.67156C7.10545 3.65402 7.1321 2.5213 7.57406 1.52344C8.8174 1.65719 9.9324 2.34924 10.6041 3.40406C10.7414 3.61876 10.9783 3.74905 11.2331 3.75H14.2659C14.5218 3.75001 14.76 3.6196 14.8978 3.40406C15.5694 2.34914 16.6844 1.65706 17.9278 1.52344C18.3692 2.52155 18.3951 3.65427 18 4.67156C17.9079 4.91109 17.9432 5.18094 18.0938 5.38875C18.511 6.01474 18.7388 6.74778 18.75 7.5V8.25Z" fill="#9EA6BA"/>
</svg>
