<svg width="20" height="20" viewBox="0 0 20 20" fill="none" xmlns="http://www.w3.org/2000/svg">
<path fill-rule="evenodd" clip-rule="evenodd" d="M18 0H1.5C0.671573 0 0 0.671573 0 1.5V18C0 18.8284 0.671573 19.5 1.5 19.5H18C18.8284 19.5 19.5 18.8284 19.5 18V1.5C19.5 0.671573 18.8284 0 18 0V0ZM18 18H1.5V1.5H18V18V18ZM6.75 8.25V14.25C6.75 14.6642 6.41421 15 6 15C5.58579 15 5.25 14.6642 5.25 14.25V8.25C5.25 7.83579 5.58579 7.5 6 7.5C6.41421 7.5 6.75 7.83579 6.75 8.25V8.25ZM15 10.875V14.25C15 14.6642 14.6642 15 14.25 15C13.8358 15 13.5 14.6642 13.5 14.25V10.875C13.5 9.83947 12.6605 9 11.625 9C10.5895 9 9.75 9.83947 9.75 10.875V14.25C9.75 14.6642 9.41421 15 9 15C8.58579 15 8.25 14.6642 8.25 14.25V8.25C8.25193 7.86975 8.53812 7.55112 8.91598 7.50852C9.29384 7.46592 9.64378 7.71285 9.73031 8.08313C10.7642 7.38174 12.101 7.30891 13.205 7.89381C14.309 8.4787 14.9996 9.62563 15 10.875V10.875ZM7.125 5.625C7.125 6.24632 6.62132 6.75 6 6.75C5.37868 6.75 4.875 6.24632 4.875 5.625C4.875 5.00368 5.37868 4.5 6 4.5C6.62132 4.5 7.125 5.00368 7.125 5.625V5.625Z" fill="#9EA6BA"/>
</svg>
